<?xml version="1.0" encoding="UTF-8"?>
<svg id="Layer_2" data-name="Layer 2" xmlns="http://www.w3.org/2000/svg" viewBox="0 0 510.69 153.4">
  <defs>
    <style>
      .cls-1 {
        fill: #2076bc;
      }

      .cls-1, .cls-2 {
        stroke-width: 0px;
      }

      .cls-2 {
        fill: #6d7789;
      }
    </style>
  </defs>
  <g id="Layer_1-2" data-name="Layer 1">
    <g>
      <g>
        <path class="cls-2" d="m152.39,114.01l18.28-53.38h7.4l18.28,53.38h-5.95l-5.37-15.23h-21.47l-5.22,15.23h-5.95Zm12.62-20.45h18.57l-9.21-27.85-9.36,27.85Z"/>
        <path class="cls-2" d="m213.1,131.78c-2.51,0-4.73-.35-6.64-1.05-1.91-.7-3.41-1.77-4.5-3.19-1.09-1.43-1.63-3.2-1.63-5.33v-1.74c0-2.23.62-4.09,1.85-5.58,1.23-1.5,2.79-2.62,4.68-3.37,1.89-.75,3.82-1.12,5.8-1.12l1.45,2.32c-1.45,0-2.81.23-4.06.69-1.26.46-2.28,1.2-3.08,2.21s-1.2,2.32-1.2,3.92v1.6c0,2.32.77,3.98,2.32,4.97,1.55.99,3.65,1.49,6.31,1.49h8.99c2.9,0,5.19-.56,6.85-1.67,1.67-1.11,2.5-2.85,2.5-5.22v-1.45c0-1.35-.27-2.51-.8-3.48-.53-.97-1.41-1.72-2.65-2.25-1.23-.53-2.96-.8-5.19-.8h-11.68c-3,0-5.33-.64-7-1.92-1.67-1.28-2.5-2.94-2.5-4.97s.57-3.46,1.7-4.57c1.14-1.11,2.74-1.89,4.82-2.32-1.79-.73-3.19-1.7-4.21-2.94-1.02-1.23-1.72-2.56-2.1-3.99-.39-1.43-.58-2.86-.58-4.32,0-3,.6-5.42,1.81-7.25,1.21-1.84,2.94-3.17,5.19-3.99,2.25-.82,4.9-1.23,7.94-1.23h20.67v3.26l-8.7.73c.63.44,1.33,1,2.1,1.7.77.7,1.44,1.69,1.99,2.97.56,1.28.83,3.04.83,5.26,0,1.98-.42,3.87-1.27,5.66-.85,1.79-2.26,3.25-4.24,4.39-1.98,1.14-4.71,1.7-8.2,1.7h-6.17c-2.03,0-3.64.3-4.82.91-1.19.6-1.78,1.68-1.78,3.23,0,1.16.44,1.98,1.31,2.47.87.48,1.79.73,2.76.73h12.84c3,0,5.48.39,7.43,1.16,1.96.77,3.43,1.95,4.42,3.52.99,1.57,1.49,3.56,1.49,5.98v1.6c0,3.53-1.2,6.3-3.59,8.3-2.39,2.01-5.96,3.01-10.7,3.01h-10.81Zm2.68-35.32h4.35c2.47,0,4.34-.37,5.62-1.12,1.28-.75,2.16-1.73,2.65-2.94.48-1.21.73-2.51.73-3.92,0-2.18-.35-3.9-1.05-5.19-.7-1.28-1.68-2.2-2.94-2.76-1.26-.56-2.71-.83-4.35-.83h-4.13c-2.76,0-4.92.62-6.49,1.85-1.57,1.23-2.36,3.37-2.36,6.42s.71,5.16,2.14,6.49c1.43,1.33,3.37,1.99,5.84,1.99Z"/>
        <path class="cls-2" d="m260.17,114.45c-4.06,0-7.27-.6-9.61-1.81-2.35-1.21-4.03-3.26-5.04-6.17-1.02-2.9-1.52-6.87-1.52-11.9s.52-9.13,1.56-12c1.04-2.88,2.74-4.9,5.11-6.06,2.37-1.16,5.56-1.74,9.57-1.74,3.43,0,6.23.39,8.38,1.16,2.15.77,3.75,2.09,4.79,3.95,1.04,1.86,1.56,4.44,1.56,7.72,0,2.27-.45,4.1-1.34,5.48-.9,1.38-2.18,2.37-3.84,2.97-1.67.6-3.64.91-5.91.91h-14.14c.05,3.14.39,5.67,1.02,7.58.63,1.91,1.78,3.29,3.45,4.13,1.67.85,4.12,1.27,7.36,1.27h12.48v3.48c-2.22.29-4.4.53-6.53.73-2.13.19-4.57.29-7.33.29Zm-10.52-21.25h13.78c2.18,0,3.78-.4,4.82-1.2,1.04-.8,1.56-2.24,1.56-4.32,0-2.22-.33-3.95-.98-5.19s-1.67-2.1-3.05-2.61-3.23-.76-5.55-.76c-2.71,0-4.84.4-6.38,1.2-1.55.8-2.64,2.21-3.26,4.24-.63,2.03-.94,4.91-.94,8.63Z"/>
        <path class="cls-2" d="m284.61,114.01v-38.73h4.5l1.23,4.28c1.84-1.31,3.99-2.45,6.46-3.45,2.47-.99,5.03-1.49,7.69-1.49,2.85,0,5.15.6,6.89,1.81,1.74,1.21,3.02,2.81,3.84,4.79.82,1.98,1.23,4.13,1.23,6.46v26.33h-5.73v-25.68c0-1.64-.33-3.11-.98-4.39-.65-1.28-1.57-2.28-2.76-3.01-1.19-.73-2.65-1.09-4.39-1.09-1.6,0-3.08.16-4.46.47-1.38.32-2.68.75-3.92,1.31-1.23.56-2.53,1.22-3.88,1.99v30.39h-5.73Z"/>
        <path class="cls-2" d="m339.81,114.45c-3.19,0-5.82-.69-7.87-2.07-2.06-1.38-3.58-3.51-4.57-6.38-.99-2.88-1.49-6.56-1.49-11.06,0-4.79.48-8.67,1.45-11.64.97-2.97,2.51-5.14,4.64-6.49,2.13-1.35,4.98-2.03,8.56-2.03,2.18,0,4.3.24,6.38.73,2.08.48,3.92,1.02,5.51,1.6v-18.42h5.73v55.34h-4.64l-1.09-3.92c-.72.63-1.8,1.28-3.23,1.96-1.43.68-2.97,1.25-4.64,1.7s-3.25.69-4.75.69Zm1.67-4.71c2.22,0,4.24-.35,6.06-1.05,1.81-.7,3.45-1.44,4.9-2.21v-25.31c-1.74-.53-3.41-.98-5-1.34-1.6-.36-3.39-.54-5.37-.54-2.47,0-4.47.46-6.02,1.38-1.55.92-2.67,2.5-3.37,4.75-.7,2.25-1.05,5.36-1.05,9.32,0,3.58.33,6.48.98,8.7.65,2.22,1.7,3.83,3.16,4.82,1.45.99,3.36,1.49,5.73,1.49Z"/>
        <path class="cls-2" d="m365.12,114.01l17.41-53.53h11.31l17.41,53.53h-9.36l-4.13-12.69h-19.37l-4.06,12.69h-9.21Zm15.38-20.74h15.09l-7.54-25.1-7.54,25.1Z"/>
        <path class="cls-2" d="m440.41,131.2v-20.96c-1.55,1.16-3.33,2.15-5.33,2.97-2.01.82-3.98,1.23-5.91,1.23-3.48,0-6.25-.71-8.3-2.14-2.06-1.43-3.53-3.61-4.42-6.56-.9-2.95-1.34-6.67-1.34-11.17,0-4.79.53-8.66,1.6-11.61,1.06-2.95,2.68-5.08,4.86-6.38,2.18-1.31,4.96-1.96,8.34-1.96,2.32,0,4.68.06,7.07.18,2.39.12,4.67.29,6.82.51,2.15.22,4.03.42,5.62.62v55.27h-8.99Zm-8.7-24.01c1.45,0,2.96-.24,4.53-.73,1.57-.48,2.96-1.09,4.17-1.81v-23.28h-7.91c-2.13,0-3.81.5-5.04,1.49-1.23.99-2.1,2.44-2.61,4.35-.51,1.91-.76,4.27-.76,7.07,0,3.29.27,5.88.8,7.76s1.35,3.22,2.47,3.99c1.11.77,2.56,1.16,4.35,1.16Z"/>
        <path class="cls-2" d="m469.64,114.45c-3.58,0-6.36-1-8.34-3.01-1.98-2.01-2.97-4.94-2.97-8.81v-27.49h8.99v24.88c0,2.56.59,4.28,1.78,5.15,1.18.87,2.79,1.31,4.82,1.31,1.69,0,3.34-.27,4.93-.8,1.6-.53,3.09-1.31,4.5-2.32v-28.22h8.99v38.88h-7.33l-1.67-4.06c-1.84,1.16-3.93,2.2-6.27,3.12-2.35.92-4.82,1.38-7.43,1.38Z"/>
        <path class="cls-2" d="m502.57,68.97c-.92,0-1.38-.44-1.38-1.31v-6.6c0-.97.46-1.45,1.38-1.45h6.82c.44,0,.76.15.98.44s.33.63.33,1.02v6.6c0,.87-.44,1.31-1.31,1.31h-6.82Zm-1.16,45.04v-38.88h8.99v38.88h-8.99Z"/>
      </g>
      <g>
        <g>
          <path class="cls-1" d="m100.51,66.18s-3.83-25.82,11.86-36.72c0,0-12.05,16.83-7.46,34.62,0,0,35-17.6,11.48-64.08,0,0,.19,11.67-16.07,28.31s.19,37.87.19,37.87Z"/>
          <g>
            <path class="cls-2" d="m2.58,135.04s44.76,4.02,39.02-49.73c0,0,34.24,34.62,59.87-12.05,0,0-10.71,84.92-98.89,61.78Z"/>
            <circle class="cls-2" cx="70.67" cy="73.83" r="13.2"/>
          </g>
        </g>
        <g>
          <path class="cls-2" d="m131.19,44.05l-3.41,3.54c6.2,10.1,9.78,21.97,9.78,34.66,0,36.62-29.79,66.41-66.41,66.41-11.78,0-22.86-3.09-32.46-8.49l-3.41,3.54c10.53,6.16,22.79,9.69,35.87,9.69,39.3,0,71.15-31.86,71.15-71.15,0-14.06-4.08-27.17-11.12-38.2Z"/>
          <path class="cls-1" d="m4.74,82.25C4.74,45.63,34.53,15.84,71.15,15.84c10.35,0,20.16,2.38,28.91,6.63l2.97-3.84c-9.59-4.81-20.41-7.53-31.88-7.53C31.86,11.09,0,42.95,0,82.25c0,17.97,6.67,34.39,17.66,46.91l2.98-3.85c-9.91-11.6-15.9-26.64-15.9-43.06Z"/>
        </g>
      </g>
    </g>
  </g>
</svg>